%FSLAX25Y25*%
%MOIN*%
G70*
G01*
G75*
G04 Layer_Color=2752767*
%ADD10R,0.01575X0.05906*%
%ADD11R,0.05906X0.01575*%
%ADD12R,0.06000X0.05000*%
%ADD13R,0.12598X0.05906*%
%ADD14R,0.02756X0.05118*%
%ADD15C,0.02000*%
%ADD16C,0.03000*%
%ADD17C,0.08000*%
%ADD18C,0.07874*%
%ADD19C,0.07480*%
%ADD20C,0.07480*%
%ADD21C,0.07874*%
%ADD22C,0.00667*%
D15*
X96153Y17848D02*
Y21847D01*
X100153D01*
Y17848D01*
X96153D01*
Y27847D02*
Y31848D01*
X100153D01*
Y27847D01*
X96153D01*
Y37848D02*
Y41848D01*
X100153D01*
Y37848D01*
X96153D01*
Y47848D02*
Y51847D01*
X100153D01*
Y47848D01*
X96153D01*
D22*
X59153Y145847D02*
G03*
X59153Y145847I-2000J0D01*
G01*
X78153D02*
G03*
X78153Y145847I-2000J0D01*
G01*
X59153Y119848D02*
G03*
X59153Y119848I-2000J0D01*
G01*
X78153D02*
G03*
X78153Y119848I-2000J0D01*
G01*
X186153Y85848D02*
Y89847D01*
X190153D01*
Y85848D01*
X186153D01*
Y95847D02*
Y99848D01*
X190153D01*
Y95847D01*
X186153D01*
Y105848D02*
Y109847D01*
X190153D01*
Y105848D01*
X186153D01*
Y115848D02*
Y119848D01*
X190153D01*
Y115848D01*
X186153D01*
Y125847D02*
Y129848D01*
X190153D01*
Y125847D01*
X186153D01*
X12652Y118348D02*
X10652Y122347D01*
X14652D01*
X12652Y118348D01*
X22652D02*
X20652Y122347D01*
X24653D01*
X22652Y118348D01*
X44653Y102348D02*
G03*
X44653Y102348I-2000J0D01*
G01*
X64653D02*
G03*
X64653Y102348I-2000J0D01*
G01*
X86652Y82348D02*
G03*
X86652Y82348I-2000J0D01*
G01*
Y102348D02*
G03*
X86652Y102348I-2000J0D01*
G01*
X44653Y82348D02*
G03*
X44653Y82348I-2000J0D01*
G01*
X64653D02*
G03*
X64653Y82348I-2000J0D01*
G01*
X14153Y96347D02*
G03*
X14153Y96347I-2000J0D01*
G01*
X24152D02*
G03*
X24152Y96347I-2000J0D01*
G01*
X12152Y70347D02*
X10153Y74348D01*
X14153D01*
X12152Y70347D01*
X22152D02*
X20153Y74348D01*
X24152D01*
X22152Y70347D01*
X12652Y44348D02*
X10652Y48347D01*
X14652D01*
X12652Y44348D01*
X22652D02*
X20652Y48347D01*
X24653D01*
X22652Y44348D01*
X34653Y24348D02*
G03*
X34653Y24348I-2000J0D01*
G01*
X14652D02*
G03*
X14652Y24348I-2000J0D01*
G01*
X32153Y165848D02*
X33152Y166848D01*
X34152D01*
X33152Y167848D01*
X34152Y168848D01*
X33152D01*
X32153Y169848D01*
X31152Y168848D01*
X30152D01*
X31152Y167848D01*
X30152Y166848D01*
X31152D01*
X32153Y165848D01*
Y175847D02*
X33152Y176848D01*
X34152D01*
X33152Y177848D01*
X34152Y178848D01*
X33152D01*
X32153Y179848D01*
X31152Y178848D01*
X30152D01*
X31152Y177848D01*
X30152Y176848D01*
X31152D01*
X32153Y175847D01*
Y185847D02*
X33152Y186847D01*
X34152D01*
X33152Y187847D01*
X34152Y188847D01*
X33152D01*
X32153Y189848D01*
X31152Y188847D01*
X30152D01*
X31152Y187847D01*
X30152Y186847D01*
X31152D01*
X32153Y185847D01*
Y195847D02*
X33152Y196847D01*
X34152D01*
X33152Y197847D01*
X34152Y198847D01*
X33152D01*
X32153Y199847D01*
X31152Y198847D01*
X30152D01*
X31152Y197847D01*
X30152Y196847D01*
X31152D01*
X32153Y195847D01*
Y205848D02*
X33152Y206848D01*
X34152D01*
X33152Y207847D01*
X34152Y208847D01*
X33152D01*
X32153Y209847D01*
X31152Y208847D01*
X30152D01*
X31152Y207847D01*
X30152Y206848D01*
X31152D01*
X32153Y205848D01*
X22152Y165848D02*
X23153Y166848D01*
X24152D01*
X23153Y167848D01*
X24152Y168848D01*
X23153D01*
X22152Y169848D01*
X21152Y168848D01*
X20153D01*
X21152Y167848D01*
X20153Y166848D01*
X21152D01*
X22152Y165848D01*
Y175847D02*
X23153Y176848D01*
X24152D01*
X23153Y177848D01*
X24152Y178848D01*
X23153D01*
X22152Y179848D01*
X21152Y178848D01*
X20153D01*
X21152Y177848D01*
X20153Y176848D01*
X21152D01*
X22152Y175847D01*
Y185847D02*
X23153Y186847D01*
X24152D01*
X23153Y187847D01*
X24152Y188847D01*
X23153D01*
X22152Y189848D01*
X21152Y188847D01*
X20153D01*
X21152Y187847D01*
X20153Y186847D01*
X21152D01*
X22152Y185847D01*
Y195847D02*
X23153Y196847D01*
X24152D01*
X23153Y197847D01*
X24152Y198847D01*
X23153D01*
X22152Y199847D01*
X21152Y198847D01*
X20153D01*
X21152Y197847D01*
X20153Y196847D01*
X21152D01*
X22152Y195847D01*
Y205848D02*
X23153Y206848D01*
X24152D01*
X23153Y207847D01*
X24152Y208847D01*
X23153D01*
X22152Y209847D01*
X21152Y208847D01*
X20153D01*
X21152Y207847D01*
X20153Y206848D01*
X21152D01*
X22152Y205848D01*
X90153Y195847D02*
X91153Y196847D01*
X92153D01*
X91153Y197847D01*
X92153Y198847D01*
X91153D01*
X90153Y199847D01*
X89152Y198847D01*
X88152D01*
X89152Y197847D01*
X88152Y196847D01*
X89152D01*
X90153Y195847D01*
X100153D02*
X101153Y196847D01*
X102153D01*
X101153Y197847D01*
X102153Y198847D01*
X101153D01*
X100153Y199847D01*
X99152Y198847D01*
X98153D01*
X99152Y197847D01*
X98153Y196847D01*
X99152D01*
X100153Y195847D01*
X90153Y185847D02*
X91153Y186847D01*
X92153D01*
X91153Y187847D01*
X92153Y188847D01*
X91153D01*
X90153Y189848D01*
X89152Y188847D01*
X88152D01*
X89152Y187847D01*
X88152Y186847D01*
X89152D01*
X90153Y185847D01*
X100153D02*
X101153Y186847D01*
X102153D01*
X101153Y187847D01*
X102153Y188847D01*
X101153D01*
X100153Y189848D01*
X99152Y188847D01*
X98153D01*
X99152Y187847D01*
X98153Y186847D01*
X99152D01*
X100153Y185847D01*
X90153Y175847D02*
X91153Y176848D01*
X92153D01*
X91153Y177848D01*
X92153Y178848D01*
X91153D01*
X90153Y179848D01*
X89152Y178848D01*
X88152D01*
X89152Y177848D01*
X88152Y176848D01*
X89152D01*
X90153Y175847D01*
X100153D02*
X101153Y176848D01*
X102153D01*
X101153Y177848D01*
X102153Y178848D01*
X101153D01*
X100153Y179848D01*
X99152Y178848D01*
X98153D01*
X99152Y177848D01*
X98153Y176848D01*
X99152D01*
X100153Y175847D01*
X90153Y165848D02*
X91153Y166848D01*
X92153D01*
X91153Y167848D01*
X92153Y168848D01*
X91153D01*
X90153Y169848D01*
X89152Y168848D01*
X88152D01*
X89152Y167848D01*
X88152Y166848D01*
X89152D01*
X90153Y165848D01*
X100153D02*
X101153Y166848D01*
X102153D01*
X101153Y167848D01*
X102153Y168848D01*
X101153D01*
X100153Y169848D01*
X99152Y168848D01*
X98153D01*
X99152Y167848D01*
X98153Y166848D01*
X99152D01*
X100153Y165848D01*
X71653Y183347D02*
X72653Y185347D01*
X71653Y187347D01*
X73652Y186347D01*
X75652Y187347D01*
X74652Y185347D01*
X75652Y183347D01*
X73652Y184347D01*
X71653Y183347D01*
X72653Y167848D02*
X73652Y169848D01*
X72653Y171847D01*
X74652Y170847D01*
X76652Y171847D01*
X75652Y169848D01*
X76652Y167848D01*
X74652Y168848D01*
X72653Y167848D01*
X136653Y165348D02*
X137653Y167348D01*
X136653Y169348D01*
X138653Y168348D01*
X140653Y169348D01*
X139653Y167348D01*
X140653Y165348D01*
X138653Y166348D01*
X136653Y165348D01*
M02*
