%FSLAX25Y25*%
%MOIN*%
G70*
G01*
G75*
G04 Layer_Physical_Order=2*
G04 Layer_Color=16711680*
%ADD10C,0.03000*%
%ADD11C,0.08000*%
%ADD12C,0.07874*%
%ADD13C,0.07480*%
%ADD14C,0.07480*%
%ADD15C,0.07874*%
D10*
X148653Y185347D02*
X148152D01*
X148653Y184847D02*
X148152Y185347D01*
X147652Y168848D02*
Y169848D01*
X148653Y167848D02*
X147652Y168848D01*
X148653Y167848D02*
X132152D01*
X167153Y184847D02*
X148653D01*
X190153Y207847D02*
X167153Y184847D01*
X198653Y209348D02*
Y217348D01*
X158152Y219348D02*
X146152Y207347D01*
X198653Y217348D02*
X196652Y219348D01*
X158152D01*
X144152Y197847D02*
X132152D01*
X146152Y199847D02*
Y207347D01*
Y199847D02*
X144152Y197847D01*
X186153D02*
X166153Y177848D01*
X132152D01*
X190153Y197847D02*
X186153D01*
X74152Y161847D02*
Y170847D01*
X79153Y156848D02*
X74152Y161847D01*
X81152Y177848D02*
X74152Y170847D01*
X122152Y177848D02*
X81152D01*
X121652Y168348D02*
X82652D01*
X83653Y167348D02*
X82652Y168348D01*
X179153Y156848D02*
X79153D01*
X190153Y167848D02*
X179153Y156848D01*
X146152Y119848D02*
Y145847D01*
Y127848D02*
Y128348D01*
X148152Y130348D02*
X146152Y128348D01*
Y132348D02*
Y132847D01*
X148152Y130348D02*
X146152Y132348D01*
X148152Y130348D02*
X146152D01*
X199653D02*
X148152D01*
X146152D02*
Y130848D01*
X209652Y120347D02*
X199653Y130348D01*
X78653Y107847D02*
X34152D01*
X174153Y12348D02*
X78653Y107847D01*
X195152Y12348D02*
X174153D01*
X177153Y24348D02*
X73652Y127848D01*
X189653Y24348D02*
X177153D01*
X73652Y127848D02*
X34152D01*
Y188847D01*
X43152Y197847D02*
X34152Y188847D01*
X122152Y197847D02*
X43152D01*
X34152Y127848D02*
X33152D01*
X16653Y111347D01*
Y64847D02*
Y111347D01*
X28653Y52847D02*
X16653Y64847D01*
X89653Y52847D02*
X28653D01*
X94152Y48347D02*
X89653Y52847D01*
X94152Y30847D02*
Y48347D01*
X105152Y19848D02*
X94152Y30847D01*
X124153Y19848D02*
X105152D01*
X200152Y207847D02*
X198653Y209348D01*
X199653Y16848D02*
Y17848D01*
Y16848D02*
X195152Y12348D01*
X199653Y17848D02*
Y46347D01*
X204653Y12847D02*
X199653Y17848D01*
X214153Y12847D02*
X204653D01*
X218653Y17347D02*
X214153Y12847D01*
X218653Y17347D02*
Y130348D01*
X200152Y148847D01*
Y167848D01*
X189653Y59847D02*
Y61848D01*
X200152Y72347D02*
X189653Y61848D01*
X200152Y72347D02*
Y72847D01*
X189653Y24348D02*
Y61848D01*
X124153Y29847D02*
X123152Y28848D01*
X104653D01*
X101653Y31848D01*
Y52847D01*
X101153D01*
X95653Y58347D01*
X34653D02*
X21653Y71347D01*
X95653Y58347D02*
X34653D01*
X21653Y71347D02*
Y105348D01*
X34152Y117848D02*
X21653Y105348D01*
X165653Y120347D02*
X165153Y119848D01*
X199653Y120347D02*
X165653D01*
X209652Y103848D02*
X207153Y106348D01*
X209652Y108347D02*
X207652Y106348D01*
X207153D01*
X197152D01*
X209652D02*
X207153D01*
X197152D02*
X193152Y102348D01*
X179653D01*
Y82348D02*
Y102348D01*
X209652Y24348D02*
Y120347D01*
X200152Y177848D02*
Y207847D01*
X122152Y167848D02*
X121652Y168348D01*
D11*
X124153Y19848D02*
D03*
Y29847D02*
D03*
Y39847D02*
D03*
Y49847D02*
D03*
X34152Y87848D02*
D03*
Y97847D02*
D03*
Y107847D02*
D03*
Y117848D02*
D03*
Y127848D02*
D03*
X210153Y96347D02*
D03*
X200152D02*
D03*
X190153Y167848D02*
D03*
Y177848D02*
D03*
Y187847D02*
D03*
Y197847D02*
D03*
Y207847D02*
D03*
X200152Y167848D02*
D03*
Y177848D02*
D03*
Y187847D02*
D03*
Y197847D02*
D03*
Y207847D02*
D03*
X132152Y197847D02*
D03*
X122152D02*
D03*
X132152Y187847D02*
D03*
X122152D02*
D03*
X132152Y177848D02*
D03*
X122152D02*
D03*
X132152Y167848D02*
D03*
X122152D02*
D03*
X148653Y185347D02*
D03*
X147652Y169848D02*
D03*
X83653Y167348D02*
D03*
D12*
X165153Y145847D02*
D03*
X146152D02*
D03*
X165153Y119848D02*
D03*
X146152D02*
D03*
X137653Y102348D02*
D03*
D13*
X209652Y120347D02*
D03*
X210153Y72347D02*
D03*
X209652Y46347D02*
D03*
D14*
X199653Y120347D02*
D03*
X200152Y72347D02*
D03*
X199653Y46347D02*
D03*
D15*
X179653Y102348D02*
D03*
X159652D02*
D03*
X137653Y82348D02*
D03*
X179653D02*
D03*
X159652D02*
D03*
X189653Y24348D02*
D03*
X209652D02*
D03*
M02*
