%FSLAX25Y25*%
%MOIN*%
G70*
G01*
G75*
%ADD10R,0.01575X0.05906*%
%ADD11R,0.05906X0.01575*%
%ADD12R,0.06000X0.05000*%
%ADD13R,0.12598X0.05906*%
%ADD14R,0.02756X0.05118*%
%ADD15C,0.02000*%
%ADD16C,0.03000*%
%ADD17C,0.08000*%
%ADD18C,0.07874*%
%ADD19C,0.07480*%
%ADD20C,0.07480*%
%ADD21C,0.07874*%
%ADD22C,0.00667*%
D22*
X95653Y19848D02*
X100653D01*
X98153Y17347D02*
Y22347D01*
X95653Y29847D02*
X100653D01*
X98153Y27347D02*
Y32348D01*
X95653Y39847D02*
X100653D01*
X98153Y37347D02*
Y42347D01*
X95653Y49847D02*
X100653D01*
X98153Y47348D02*
Y52347D01*
X55184Y145847D02*
X59121D01*
X57152Y143879D02*
Y147816D01*
X74184Y145847D02*
X78121D01*
X76152Y143879D02*
Y147816D01*
X55184Y119848D02*
X59121D01*
X57152Y117879D02*
Y121816D01*
X74184Y119848D02*
X78121D01*
X76152Y117879D02*
Y121816D01*
X185652Y87848D02*
X190653D01*
X188153Y85347D02*
Y90347D01*
X185652Y97847D02*
X190653D01*
X188153Y95347D02*
Y100347D01*
X185652Y107847D02*
X190653D01*
X188153Y105348D02*
Y110347D01*
X185652Y117848D02*
X190653D01*
X188153Y115348D02*
Y120347D01*
X185652Y127848D02*
X190653D01*
X188153Y125347D02*
Y130348D01*
X11152Y120347D02*
X14153D01*
X12652Y118848D02*
Y121847D01*
X21152Y120347D02*
X24152D01*
X22652Y118848D02*
Y121847D01*
X40684Y102348D02*
X44621D01*
X42652Y100379D02*
Y104316D01*
X60684Y102348D02*
X64621D01*
X62652Y100379D02*
Y104316D01*
X82684Y82348D02*
X86621D01*
X84653Y80379D02*
Y84316D01*
X82684Y102348D02*
X86621D01*
X84653Y100379D02*
Y104316D01*
X40684Y82348D02*
X44621D01*
X42652Y80379D02*
Y84316D01*
X60684Y82348D02*
X64621D01*
X62652Y80379D02*
Y84316D01*
X10184Y96347D02*
X14121D01*
X12152Y94379D02*
Y98316D01*
X20184Y96347D02*
X24121D01*
X22152Y94379D02*
Y98316D01*
X10652Y72347D02*
X13653D01*
X12152Y70847D02*
Y73848D01*
X20652Y72347D02*
X23652D01*
X22152Y70847D02*
Y73848D01*
X11152Y46347D02*
X14153D01*
X12652Y44848D02*
Y47848D01*
X21152Y46347D02*
X24152D01*
X22652Y44848D02*
Y47848D01*
X30684Y24348D02*
X34621D01*
X32653Y22379D02*
Y26316D01*
X10684Y24348D02*
X14621D01*
X12652Y22379D02*
Y26316D01*
X30152Y167848D02*
X34152D01*
X32153Y165848D02*
Y169848D01*
X30152Y177848D02*
X34152D01*
X32153Y175847D02*
Y179848D01*
X30152Y187847D02*
X34152D01*
X32153Y185847D02*
Y189848D01*
X30152Y197847D02*
X34152D01*
X32153Y195847D02*
Y199847D01*
X30152Y207847D02*
X34152D01*
X32153Y205848D02*
Y209847D01*
X20153Y167848D02*
X24152D01*
X22152Y165848D02*
Y169848D01*
X20153Y177848D02*
X24152D01*
X22152Y175847D02*
Y179848D01*
X20153Y187847D02*
X24152D01*
X22152Y185847D02*
Y189848D01*
X20153Y197847D02*
X24152D01*
X22152Y195847D02*
Y199847D01*
X20153Y207847D02*
X24152D01*
X22152Y205848D02*
Y209847D01*
X88152Y197847D02*
X92153D01*
X90153Y195847D02*
Y199847D01*
X98153Y197847D02*
X102153D01*
X100153Y195847D02*
Y199847D01*
X88152Y187847D02*
X92153D01*
X90153Y185847D02*
Y189848D01*
X98153Y187847D02*
X102153D01*
X100153Y185847D02*
Y189848D01*
X88152Y177848D02*
X92153D01*
X90153Y175847D02*
Y179848D01*
X98153Y177848D02*
X102153D01*
X100153Y175847D02*
Y179848D01*
X88152Y167848D02*
X92153D01*
X90153Y165848D02*
Y169848D01*
X98153Y167848D02*
X102153D01*
X100153Y165848D02*
Y169848D01*
X72253Y185347D02*
X75052D01*
X73652Y183948D02*
Y186748D01*
X73252Y169848D02*
X76052D01*
X74652Y168447D02*
Y171247D01*
X137252Y167348D02*
X140052D01*
X138653Y165947D02*
Y168747D01*
M02*
